<svg width="52" height="51" viewBox="0 0 52 51" fill="none" xmlns="http://www.w3.org/2000/svg">
<path fill-rule="evenodd" clip-rule="evenodd" d="M15.5786 24.6399C15.9596 24.2374 16.5925 24.2219 16.9924 24.6053L23.9924 31.3158C24.3924 31.6991 24.4078 32.3364 24.0269 32.7389C23.646 33.1415 23.013 33.1569 22.613 32.7736L15.613 26.0631C15.2132 25.6797 15.1977 25.0426 15.5786 24.6399Z" fill="#F4F4F4"/>
<path fill-rule="evenodd" clip-rule="evenodd" d="M24.0269 17.9295C24.4078 18.3321 24.3924 18.9692 23.9924 19.3526L16.9924 26.0632C16.5925 26.4465 15.9596 26.431 15.5786 26.0284C15.1977 25.6259 15.2132 24.9887 15.613 24.6054L22.613 17.8949C23.013 17.5114 23.646 17.527 24.0269 17.9295Z" fill="#F4F4F4"/>
<path fill-rule="evenodd" clip-rule="evenodd" d="M15.3027 25.3342C15.3027 24.7783 15.7505 24.3277 16.3027 24.3277H34.9694C35.5217 24.3277 35.9694 24.7783 35.9694 25.3342C35.9694 25.8901 35.5217 26.3408 34.9694 26.3408H16.3027C15.7505 26.3408 15.3027 25.8901 15.3027 25.3342Z" fill="#F4F4F4"/>
<path fill-rule="evenodd" clip-rule="evenodd" d="M2.47521 25.3342C2.47521 38.2097 12.8447 48.6474 25.636 48.6474C38.4274 48.6474 48.7968 38.2097 48.7968 25.3342C48.7968 12.4586 38.4274 2.02106 25.636 2.02106C12.8447 2.02106 2.47521 12.4586 2.47521 25.3342ZM25.636 50.6605C11.7401 50.6605 0.47522 39.3215 0.47522 25.3342C0.47522 11.3468 11.7401 0.00790024 25.636 0.00790024C39.5319 0.00790024 50.7968 11.3468 50.7968 25.3342C50.7968 39.3215 39.5319 50.6605 25.636 50.6605Z" fill="#F4F4F4"/>
</svg>
