<svg width="188" height="49" viewBox="0 0 188 49" fill="none" xmlns="http://www.w3.org/2000/svg">
<path d="M145.865 38.452H147.466C148.948 38.452 149.807 39.3002 149.807 40.4916V40.5025C149.807 41.6939 148.934 42.5777 147.441 42.5777H145.865V38.452ZM147.483 41.5648C148.17 41.5648 148.625 41.1888 148.625 40.5218V40.5108C148.625 39.852 148.17 39.4677 147.483 39.4677H147.013V41.5648H147.483Z" fill="white"/>
<path d="M154.272 38.452H155.429V42.5777H154.272V38.452Z" fill="white"/>
<path d="M159.707 38.452H160.993L161.934 41.0625L162.875 38.452H164.136L162.453 42.6079H161.385L159.701 38.452H159.707Z" fill="white"/>
<path d="M168.395 38.452H171.732V39.4237H169.535V40.0496H171.525V40.95H169.535V41.6033H171.762V42.575H168.398V38.4493L168.395 38.452Z" fill="white"/>
<path d="M176.2 38.452H178.163C178.797 38.452 179.236 38.6167 179.512 38.8995C179.755 39.1355 179.879 39.4539 179.879 39.8602V39.8712C179.879 40.5025 179.543 40.9198 179.027 41.1394L180.015 42.5777H178.687L177.851 41.3288H177.346V42.5777H176.195V38.452H176.2ZM178.107 40.4312C178.499 40.4312 178.723 40.2418 178.723 39.9426V39.9316C178.723 39.6077 178.486 39.443 178.102 39.443H177.348V40.4339H178.107V40.4312Z" fill="white"/>
<path d="M183.997 41.9656L184.638 41.2053C185.046 41.5292 185.502 41.6994 185.982 41.6994C186.291 41.6994 186.456 41.5923 186.456 41.4166V41.4057C186.456 41.2355 186.321 41.1394 185.758 41.0104C184.875 40.81 184.193 40.5629 184.193 39.7147V39.7038C184.193 38.9379 184.803 38.3834 185.8 38.3834C186.503 38.3834 187.055 38.5728 187.505 38.9324L186.931 39.7394C186.553 39.4732 186.136 39.3332 185.769 39.3332C185.49 39.3332 185.355 39.4512 185.355 39.5995V39.6104C185.355 39.7998 185.499 39.8822 186.073 40.0112C187.028 40.2171 187.618 40.5245 187.618 41.2959V41.3068C187.618 42.1496 186.948 42.6519 185.94 42.6519C185.206 42.6519 184.505 42.4213 183.997 41.9684V41.9656Z" fill="white"/>
<path d="M81.9163 33.9091H78.0136V33.1158C77.5168 33.5221 76.9786 33.8158 76.3935 33.9997C75.8084 34.1836 75.1902 34.2769 74.5361 34.2769C73.4569 34.2769 72.4661 34.0601 71.5608 33.6291C70.6583 33.1982 69.8799 32.6162 69.2231 31.886C68.569 31.1559 68.0584 30.3049 67.6968 29.336C67.3325 28.367 67.1531 27.3458 67.1531 26.2725C67.1531 25.1279 67.3601 24.0683 67.7768 23.0911C68.1936 22.1139 68.7456 21.2657 69.4356 20.5437C70.1256 19.8218 70.9122 19.2536 71.7981 18.8391C72.6841 18.4246 73.5949 18.2187 74.5333 18.2187C75.1874 18.2187 75.825 18.3066 76.446 18.4823C77.0642 18.6579 77.5969 18.905 78.0385 19.2207V11.9849H81.9163V33.9064V33.9091ZM78.0661 29.8163V22.4735C77.8894 22.3499 77.6852 22.2319 77.4534 22.1166C77.2215 22.0013 76.9814 21.9053 76.733 21.8257C76.4846 21.7461 76.2362 21.6857 75.9878 21.6417C75.7394 21.5978 75.5158 21.5759 75.3226 21.5759C74.6823 21.5759 74.1 21.6857 73.5756 21.9053C73.0512 22.1249 72.593 22.4433 72.2039 22.855C71.8119 23.2695 71.5111 23.7664 71.2986 24.3483C71.0861 24.9302 70.9784 25.5726 70.9784 26.2753C70.9784 26.978 71.0861 27.5929 71.2986 28.1638C71.5111 28.7348 71.8037 29.2289 72.179 29.6434C72.5516 30.0579 73.0015 30.379 73.5259 30.6069C74.0503 30.8347 74.6244 30.95 75.2454 30.95C76.2583 30.95 77.1994 30.5712 78.0716 29.8136L78.0661 29.8163Z" fill="white"/>
<path d="M100.955 26.2506C100.955 26.4976 100.941 26.7529 100.916 27.0164C100.888 27.2799 100.858 27.5544 100.822 27.8344H88.5541C88.6948 28.2736 88.8936 28.6936 89.153 29.0889C89.4097 29.4842 89.7243 29.8273 90.0969 30.1182C90.4695 30.4092 90.889 30.6371 91.3582 30.8045C91.8274 30.9719 92.3463 31.0543 92.9121 31.0543C93.6021 31.0543 94.2921 30.9363 94.9821 30.6974C95.6721 30.4586 96.2489 30.1375 96.7071 29.734L99.1248 32.1386C98.0622 32.9319 97.0217 33.4891 96.0033 33.8158C94.9849 34.1424 93.9085 34.3044 92.7769 34.3044C91.6453 34.3044 90.5496 34.093 89.5504 33.6703C88.5513 33.2475 87.6819 32.6766 86.9478 31.9546C86.2136 31.2327 85.634 30.3845 85.209 29.4073C84.7839 28.4301 84.5714 27.387 84.5714 26.278C84.5714 25.169 84.7839 24.1259 85.209 23.1487C85.634 22.1715 86.2191 21.3233 86.9616 20.6014C87.704 19.8794 88.5734 19.3085 89.5642 18.8857C90.5551 18.463 91.6177 18.2516 92.752 18.2516C93.8864 18.2516 94.8662 18.4493 95.8598 18.8473C96.8506 19.2426 97.7283 19.7943 98.49 20.497C99.2518 21.2025 99.8535 22.0425 100.295 23.0197C100.737 23.9969 100.96 25.0757 100.96 26.256L100.955 26.2506ZM96.9444 24.771C96.6436 23.802 96.1082 23.0224 95.3381 22.4323C94.5681 21.8421 93.6959 21.5484 92.7217 21.5484C91.7474 21.5484 90.9056 21.8421 90.1466 22.4323C89.3848 23.0224 88.8549 23.802 88.5541 24.771H96.9444Z" fill="white"/>
<path d="M119.198 26.2506C119.198 26.4976 119.184 26.7529 119.16 27.0164C119.132 27.2799 119.102 27.5544 119.066 27.8344H106.798C106.938 28.2736 107.137 28.6936 107.397 29.0889C107.653 29.4842 107.968 29.8273 108.34 30.1182C108.713 30.4092 109.133 30.6371 109.602 30.8045C110.071 30.9719 110.59 31.0543 111.156 31.0543C111.846 31.0543 112.536 30.9363 113.226 30.6974C113.916 30.4586 114.492 30.1375 114.951 29.734L117.368 32.1386C116.306 32.9319 115.265 33.4891 114.247 33.8158C113.228 34.1424 112.152 34.3044 111.02 34.3044C109.889 34.3044 108.793 34.093 107.794 33.6703C106.795 33.2475 105.925 32.6766 105.191 31.9546C104.457 31.2327 103.878 30.3845 103.452 29.4073C103.027 28.4301 102.815 27.387 102.815 26.278C102.815 25.169 103.027 24.1259 103.452 23.1487C103.878 22.1715 104.463 21.3233 105.205 20.6014C105.948 19.8794 106.817 19.3085 107.808 18.8857C108.799 18.463 109.861 18.2516 110.996 18.2516C112.13 18.2516 113.11 18.4493 114.103 18.8473C115.094 19.2426 115.972 19.7943 116.734 20.497C117.495 21.2025 118.097 22.0425 118.539 23.0197C118.98 23.9969 119.204 25.0757 119.204 26.256L119.198 26.2506ZM115.188 24.771C114.887 23.802 114.352 23.0224 113.582 22.4323C112.812 21.8421 111.939 21.5484 110.965 21.5484C109.991 21.5484 109.149 21.8421 108.39 22.4323C107.628 23.0224 107.098 23.802 106.798 24.771H115.188Z" fill="white"/>
<path d="M136.354 26.3027C136.354 27.376 136.172 28.3971 135.808 29.3661C135.444 30.3351 134.933 31.1833 134.276 31.9135C133.619 32.6436 132.838 33.2256 131.933 33.6565C131.028 34.0875 130.034 34.3044 128.952 34.3044C128.279 34.3044 127.647 34.211 127.061 34.0271C126.476 33.8432 125.924 33.5467 125.411 33.1432L125.439 40.5382H121.588V18.6167H125.439L125.466 19.41C125.908 19.0587 126.435 18.7759 127.045 18.5646C127.655 18.3532 128.298 18.2489 128.971 18.2489C129.91 18.2489 130.821 18.4548 131.707 18.8693C132.592 19.2838 133.379 19.852 134.069 20.5739C134.759 21.2958 135.314 22.144 135.728 23.124C136.145 24.1012 136.352 25.1608 136.352 26.3054L136.354 26.3027ZM132.452 26.3301C132.452 25.6082 132.344 24.9577 132.132 24.3757C131.919 23.7938 131.621 23.2969 131.237 22.8824C130.856 22.4679 130.401 22.1523 129.877 21.9327C129.352 21.7131 128.77 21.6033 128.132 21.6033C127.724 21.6033 127.257 21.6856 126.733 21.8531C126.209 22.0205 125.77 22.2456 125.414 22.5256V29.841C126.247 30.5986 127.183 30.9774 128.212 30.9774C128.817 30.9774 129.38 30.8621 129.904 30.6343C130.429 30.4065 130.876 30.0853 131.251 29.6708C131.624 29.2563 131.919 28.765 132.132 28.1913C132.344 27.6203 132.452 26.9999 132.452 26.3301Z" fill="white"/>
<path d="M153.588 33.8294C153.287 33.9694 152.945 34.0847 152.567 34.1726C152.186 34.2604 151.791 34.3043 151.385 34.3043C150.819 34.3043 150.273 34.2302 149.751 34.0792C149.23 33.931 148.774 33.6867 148.382 33.3518C147.993 33.0169 147.681 32.5805 147.452 32.0452C147.223 31.5072 147.107 30.8621 147.107 30.1045V11.9875H151.01V29.4457C151.01 30.0798 151.137 30.5162 151.394 30.7523C151.65 30.9911 151.957 31.1092 152.31 31.1092C152.751 31.1092 153.177 30.9774 153.585 30.7139V33.8294H153.588Z" fill="white"/>
<path d="M159.428 15.976H155.445V12.015H159.428V15.976ZM159.375 33.9091H155.498V18.6167H159.375V33.9091Z" fill="white"/>
<path d="M171.459 15.4737C171.086 15.3337 170.758 15.2404 170.476 15.1965C170.192 15.1526 169.883 15.1306 169.546 15.1306C168.804 15.1306 168.276 15.298 167.967 15.6329C167.658 15.9678 167.504 16.5745 167.504 17.4556V18.6716H169.919V21.9986H167.504V33.9091H163.678V21.9986H161.818V18.6716H163.678V17.5105C163.678 15.5918 164.04 14.1287 164.76 13.1268C165.483 12.1221 166.75 11.6225 168.563 11.6225C169.59 11.6225 170.556 11.746 171.459 11.9931V15.4792V15.4737Z" fill="white"/>
<path d="M187.95 26.2506C187.95 26.4976 187.936 26.7529 187.911 27.0164C187.883 27.2799 187.853 27.5544 187.817 27.8344H175.549C175.69 28.2736 175.888 28.6936 176.145 29.0889C176.402 29.4842 176.716 29.8273 177.089 30.1182C177.462 30.4092 177.881 30.6371 178.35 30.8045C178.819 30.9719 179.338 31.0543 179.904 31.0543C180.594 31.0543 181.284 30.9363 181.974 30.6974C182.664 30.4586 183.238 30.1375 183.699 29.734L186.114 32.1386C185.052 32.9319 184.011 33.4891 182.995 33.8158C181.977 34.1424 180.901 34.3044 179.769 34.3044C178.637 34.3044 177.542 34.093 176.543 33.6703C175.543 33.2475 174.674 32.6766 173.94 31.9546C173.206 31.2327 172.626 30.3845 172.201 29.4073C171.776 28.4301 171.563 27.387 171.563 26.278C171.563 25.169 171.776 24.1259 172.201 23.1487C172.626 22.1715 173.211 21.3233 173.954 20.6014C174.696 19.8794 175.565 19.3085 176.556 18.8857C177.547 18.463 178.61 18.2516 179.744 18.2516C180.878 18.2516 181.858 18.4493 182.852 18.8473C183.843 19.2426 184.72 19.7943 185.482 20.497C186.244 21.2025 186.846 22.0425 187.287 23.0197C187.729 23.9969 187.952 25.0757 187.952 26.256L187.95 26.2506ZM183.939 24.771C183.638 23.802 183.103 23.0224 182.333 22.4323C181.563 21.8421 180.691 21.5484 179.716 21.5484C178.742 21.5484 177.9 21.8421 177.141 22.4323C176.38 23.0224 175.85 23.802 175.549 24.771H183.939Z" fill="white"/>
<path d="M36.1307 2.88108C41.4926 2.88108 46.3915 4.90742 50.1377 8.25179C51.5104 7.70736 51.9327 7.29487 52.0236 7.1907L52.0263 7.18098L52.0793 7.09348C52.1228 7.02126 52.1662 6.95321 52.2097 6.88516C47.9856 2.88941 42.3372 0.446411 36.1307 0.446411C27.7627 0.446411 20.4076 4.8852 16.1917 11.585L18.2609 12.7989C22.0641 6.8296 28.6466 2.88108 36.1307 2.88108Z" fill="white"/>
<path d="M14.786 24.3328C14.786 21.3495 15.3853 18.5114 16.4648 15.9338C15.8126 15.5146 15.1458 15.0846 14.4791 14.6518C13.1852 17.6079 12.4656 20.8842 12.4656 24.3328C12.4656 30.6289 14.864 36.3498 18.7733 40.592C19.2191 39.9409 19.6014 39.192 19.9176 38.3482C16.7227 34.6025 14.786 29.6996 14.786 24.3341V24.3328Z" fill="white"/>
<path d="M55.3916 10.946C55.2524 11.4636 55.0832 12.0123 54.8812 12.6015C54.7338 13.0312 54.5796 13.4501 54.424 13.8515C56.2336 16.9637 57.268 20.5719 57.268 24.4193C57.268 36.1344 47.6743 45.6346 35.8439 45.6346C32.495 45.6346 29.3262 44.8724 26.5027 43.5156C25.4382 44.0008 24.4857 44.3805 23.6437 44.6751C26.8643 46.5819 30.5776 47.7589 34.5502 47.9698C34.9132 47.9887 35.2776 48.0008 35.6433 48.0035C35.7102 48.0035 35.7784 48.0035 35.8453 48.0035C48.9967 48.0035 59.6617 37.4425 59.6617 24.4193C59.6617 19.4097 58.0827 14.7664 55.3916 10.946Z" fill="white"/>
<path d="M54.8179 6.03601C54.8179 6.03601 54.0899 5.2632 52.7222 7.4474C52.7222 7.4474 52.2659 8.97133 44.5622 10.4044C44.5622 10.4044 36.2201 12.8177 32.1184 16.6384C32.1184 16.6384 29.6125 18.4132 28.3358 15.0453C28.3358 15.0453 26.2388 13.9092 26.1016 16.6384C26.1016 16.6384 24.0507 17.0926 24.0507 14.6345C24.0507 14.6345 23.1855 14.4081 23.4585 16.4554L8.5075 7.9016L1.21262 3.62403L0.666626 3.53455C0.666626 3.53455 1.6975 5.16287 7.4644 9.10826C12.1108 12.2863 24.1254 19.6619 24.1254 19.6619C24.1254 19.6619 24.6728 19.8449 24.1254 19.9818C24.1254 19.9818 21.7268 19.8232 23.0932 21.3254L24.4595 22.2799C24.4595 22.2799 24.7325 23.3727 23.502 24.8736C23.502 24.8736 21.7255 28.8325 21.8613 32.382C21.8613 32.382 22.1343 41.1188 16.1188 43.7111C16.1188 43.7111 15.1613 45.3503 18.8529 44.8039C18.8529 44.8039 24.8697 45.7598 39.9131 34.2937C39.9131 34.2937 45.2196 36.2773 49.4707 34.0985L24.5043 18.9284L7.4644 8.25411L25.4062 18.2749L51.0109 33.0301C51.5189 32.4512 53.0143 30.4093 51.3994 27.8753C51.3994 27.8753 50.306 22.688 52.4927 16.6818C52.4927 16.6818 56.733 8.08327 54.8179 6.03465" fill="white"/>
</svg>
