<svg width="52" height="51" viewBox="0 0 52 51" fill="none" xmlns="http://www.w3.org/2000/svg">
<path fill-rule="evenodd" clip-rule="evenodd" d="M36.4214 26.3601C36.0404 26.7626 35.4075 26.7781 35.0076 26.3947L28.0076 19.6842C27.6076 19.3009 27.5922 18.6636 27.9731 18.2611C28.354 17.8585 28.987 17.8431 29.387 18.2264L36.387 24.9369C36.7868 25.3203 36.8023 25.9574 36.4214 26.3601Z" fill="#F4F4F4"/>
<path fill-rule="evenodd" clip-rule="evenodd" d="M27.9731 33.0705C27.5922 32.6679 27.6076 32.0308 28.0076 31.6474L35.0076 24.9368C35.4075 24.5535 36.0404 24.569 36.4214 24.9716C36.8023 25.3741 36.7868 26.0113 36.387 26.3946L29.387 33.1051C28.987 33.4886 28.354 33.473 27.9731 33.0705Z" fill="#F4F4F4"/>
<path fill-rule="evenodd" clip-rule="evenodd" d="M36.6973 25.6658C36.6973 26.2217 36.2495 26.6723 35.6973 26.6723L17.0306 26.6723C16.4783 26.6723 16.0306 26.2217 16.0306 25.6658C16.0306 25.1099 16.4783 24.6592 17.0306 24.6592L35.6973 24.6592C36.2495 24.6592 36.6973 25.1099 36.6973 25.6658Z" fill="#F4F4F4"/>
<path fill-rule="evenodd" clip-rule="evenodd" d="M49.5248 25.6658C49.5248 12.7903 39.1553 2.35264 26.364 2.35264C13.5726 2.35264 3.20316 12.7903 3.20316 25.6658C3.20316 38.5414 13.5726 48.9789 26.364 48.9789C39.1553 48.9789 49.5248 38.5414 49.5248 25.6658ZM26.364 0.339478C40.2599 0.339478 51.5248 11.6785 51.5248 25.6658C51.5248 39.6532 40.2599 50.9921 26.364 50.9921C12.4681 50.9921 1.20316 39.6532 1.20316 25.6658C1.20316 11.6785 12.4681 0.339478 26.364 0.339478Z" fill="#F4F4F4"/>
</svg>
